<svg xmlns="http://www.w3.org/2000/svg" viewBox="0 0 245.9 240.2">
  <path fill="#fff" fill-opacity="0" d="M0 0h245.9v240.2H0z" pointer-events="none"/>
  <path fill="#e24329" d="M123 230.8l44.2-136.2H78.7l44.2 136.2z" />
  <path fill="#fc6d26" d="M123 230.8L78.6 94.6h-62L123 230.8z" />
  <path fill="#fca326" d="M16.7 94.6L3.2 135.9A8.9 8.9 0 006.6 146l116.3 84.4L16.7 94.6z" />
  <path fill="#e24329" d="M16.7 94.6h62L52 12.8c-1.5-4.2-7.5-4.2-8.6 0L16.7 94.6z" />
  <path fill="#fc6d26" d="M123 230.8l44.2-136.2h62L122.9 230.8z" />
  <path fill="#fca326" d="M229.2 94.6l13.5 41.3c1.1 3.7 0 7.8-3.4 10.1l-116.4 84.8L229.2 94.6z" />
  <path fill="#e24329" d="M229.2 94.6h-62L194 12.8c1.5-4.2 7.5-4.2 8.6 0l26.7 81.8z" />
</svg>